<?xml version="1.0" standalone="no"?><!DOCTYPE svg PUBLIC "-//W3C//DTD SVG 1.1//EN" "http://www.w3.org/Graphics/SVG/1.1/DTD/svg11.dtd"><svg t="1683361096329" class="icon" viewBox="0 0 1024 1024" version="1.1" xmlns="http://www.w3.org/2000/svg" p-id="2669" xmlns:xlink="http://www.w3.org/1999/xlink" width="200" height="200"><path d="M613.664 819.68a16.32 16.32 0 0 1-4.688-0.704l-476.96-146.24c-11.744-2.064-69.248-17.328-69.248-118.176 0-46.32 18.336-71.664 33.696-84.752 21.856-18.624 53.68-26.224 87.344-20.768a16 16 0 0 1-5.088 31.584c-24.384-3.936-46.8 1.008-61.504 13.536-14.896 12.688-22.448 33.008-22.448 60.4 0 81.344 42.064 86.592 42.48 86.624 1.04 0.112 2.064 0.32 3.056 0.624L608 785.2 926.448 392c-4.96-13.664-9.184-39.216 3.584-78.144a16.016 16.016 0 0 1 30.416 9.968c-13.888 42.368-2.24 61.024-2.112 61.216 3.776 5.808 3.696 13.872-0.656 19.264l-331.584 409.44a15.936 15.936 0 0 1-12.432 5.936z" fill="#515151" p-id="2670"></path><path d="M613.664 1016.896c-1.632 0-3.264-0.256-4.88-0.768L130.752 863.232c-3.072-1.024-67.984-24.352-67.984-123.552 0-61.008 45.12-97.616 47.04-99.12a15.984 15.984 0 1 1 19.92 25.024c-0.304 0.256-34.96 28.848-34.96 74.096 0 76.56 45.568 93.008 46.032 93.168l467.392 149.488 318.272-387.728c-11.424-26.8-35.952-104 3.872-206.192a16.016 16.016 0 0 1 29.808 11.632c-43.296 111.104-1.376 188.32-0.944 189.072 3.2 5.744 2.576 12.88-1.6 17.968L626.032 1011.04a16 16 0 0 1-12.368 5.856z" fill="#515151" p-id="2671"></path><path d="M982.624 155.008a35.568 35.568 0 0 0-26.16-23.152L463.376 20.08a36.048 36.048 0 0 0-34.56 11.616L76.624 423.664c-8.096 9.184-37.248 50.784-37.248 113.504 19.664-24.336 43.088-58.88 54.976-55.68l484.336 146.112a35.792 35.792 0 0 0 36.896-11.84l360.96-426.336a35.776 35.776 0 0 0 6.08-34.416z m-263.44 84.272l-27.152 32.16c-7.536 8.88-25.024 13.296-38.96 10.032l-252.8-61.632c-13.92-3.344-19.184-13.344-11.728-22.16l27.152-32.256c7.504-8.864 25.008-13.28 38.976-9.968l252.816 61.504c13.856 3.36 19.168 13.424 11.696 22.32z" fill="#515151" p-id="2672"></path></svg>